<?xml version="1.0" encoding="UTF-8" standalone="no"?>
<svg enable-background="new 0 0 512 512" viewBox="0 0 165 227" version="1.1" xmlns="http://www.w3.org/2000/svg"
     xmlns:xlink="http://www.w3.org/1999/xlink">

    <defs></defs>
    <g id="Page-1" stroke="none" stroke-width="1" fill="none" fill-rule="evenodd">
        <g id="if_BTC-alt_1175251-(1)" fill-rule="nonzero" fill="#fff">
            <path d="M151.981,112.854 C144.681,107.356 134.282,105.157 134.282,105.157 C134.282,105.157 143.082,100.055 146.678,94.958 C150.278,89.859 152.077,81.959 152.378,77.86 C152.677,73.759 153.378,56.564 139.979,46.667 C129.615,39.009 117.738,35.969 101.789,34.98 L101.789,0.278 L80.393,0.278 L80.393,34.57 L64.096,34.57 L64.096,0.278 L42.702,0.278 L42.702,34.57 L0.61,34.57 L0.61,56.789 L12.982,56.789 C16.355,56.789 22.354,57.164 24.903,60.017 C27.453,62.865 27.903,64.366 27.903,69.912 C27.903,75.46 27.904,156.347 27.904,158.447 C27.904,160.546 27.504,163.144 25.703,164.845 C23.905,166.546 22.106,166.943 17.805,166.943 L5.009,166.943 L0.61,192.641 L42.702,192.641 L42.702,226.836 L64.097,226.836 L64.097,192.641 L80.394,192.641 L80.394,226.836 L101.79,226.836 L101.79,192.077 C107.321,191.754 112.478,191.335 115.486,190.941 C121.586,190.143 135.382,188.543 148.282,179.544 C161.178,170.544 164.075,156.446 164.376,142.25 C164.68,128.053 159.274,118.353 151.981,112.854 Z M64.096,58.766 C64.096,58.766 70.894,58.167 77.593,58.265 C84.294,58.364 90.19,58.565 98.991,61.265 C107.788,63.966 112.983,70.565 113.187,78.364 C113.386,86.163 109.983,91.36 103.987,94.66 C97.989,97.959 89.695,99.759 81.893,100.056 C74.096,100.357 64.096,100.056 64.096,100.056 L64.096,58.766 L64.096,58.766 Z M111.986,161.045 C107.087,163.746 97.288,166.145 87.792,166.843 C78.293,167.544 64.096,167.244 64.096,167.244 L64.096,121.351 C64.096,121.351 77.694,120.653 88.293,121.351 C98.89,122.054 107.788,124.751 111.785,126.754 C115.784,128.752 122.785,133.15 122.785,143.65 C122.785,154.146 116.882,158.346 111.986,161.045 Z"
                  id="BTC_alt_1_"></path>
        </g>
    </g>
</svg>