<?xml version="1.0" ?><svg id="Layer_1" style="enable-background:new 0 0 74 74;" version="1.1" viewBox="0 0 74 74" xml:space="preserve" xmlns="http://www.w3.org/2000/svg" xmlns:xlink="http://www.w3.org/1999/xlink"><style type="text/css">
</style><path fill="#fff" class="st0" d="M37,1C17.1,1,1,17.1,1,37s16.1,36,36,36s36-16.1,36-36S56.9,1,37,1z M39,23.1c3.8-0.1,7.5-0.5,11-1.2  c1,4,1.6,8.4,1.8,13.1H39V23.1z M39,19.1V5.3c4,1.2,7.5,6,9.9,12.7C45.8,18.7,42.4,19,39,19.1z M35,5.3v13.8  c-3.4-0.1-6.8-0.5-9.9-1.1C27.5,11.3,31,6.5,35,5.3z M35,23.1V35H22.2c0.1-4.7,0.8-9.1,1.8-13.1C27.5,22.6,31.2,23,35,23.1z   M18.2,35H5.1c0.4-6.5,2.7-12.4,6.4-17.3C14,19,16.9,20.1,20,21C19,25.2,18.3,30,18.2,35z M18.2,39c0.1,5,0.8,9.8,1.9,14  c-3.1,0.9-6,2-8.5,3.3c-3.7-4.9-6-10.8-6.4-17.3H18.2z M22.2,39H35v11.9c-3.8,0.1-7.5,0.5-11,1.2C22.9,48.1,22.3,43.7,22.2,39z   M35,54.9v13.8c-4-1.2-7.5-6-9.9-12.7C28.2,55.3,31.6,55,35,54.9z M39,68.7V54.9c3.4,0.1,6.8,0.5,9.9,1.1C46.5,62.7,43,67.5,39,68.7  z M39,50.9V39h12.8c-0.1,4.7-0.8,9.1-1.8,13.1C46.5,51.4,42.8,51,39,50.9z M55.8,39h13.1c-0.4,6.5-2.7,12.4-6.4,17.3  C60,55,57.1,53.9,54,53C55,48.8,55.7,44,55.8,39z M55.8,35c-0.1-5-0.8-9.8-1.9-14c3.1-0.9,6-2,8.5-3.3c3.7,4.9,6,10.8,6.4,17.3H55.8  z M59.8,14.6c-2.1,1-4.4,1.9-7,2.6c-1.4-4.2-3.3-7.7-5.5-10.4C52.1,8.4,56.4,11.1,59.8,14.6z M26.7,6.7c-2.2,2.7-4.1,6.2-5.5,10.4  c-2.5-0.7-4.9-1.6-7-2.6C17.6,11.1,21.9,8.4,26.7,6.7z M14.2,59.4c2.1-1,4.4-1.9,7-2.6c1.4,4.2,3.3,7.7,5.5,10.4  C21.9,65.6,17.6,62.9,14.2,59.4z M47.3,67.3c2.2-2.7,4.1-6.2,5.5-10.4c2.5,0.7,4.9,1.6,7,2.6C56.4,62.9,52.1,65.6,47.3,67.3z"/></svg>