<?xml version="1.0" ?><!DOCTYPE svg  PUBLIC '-//W3C//DTD SVG 1.1//EN'  'http://www.w3.org/Graphics/SVG/1.1/DTD/svg11.dtd'><svg enable-background="new 0 0 30 30" height="30px" id="Vkontakte" version="1.1" viewBox="0 0 30 30" width="30px" xml:space="preserve" xmlns="http://www.w3.org/2000/svg" xmlns:xlink="http://www.w3.org/1999/xlink">
    <path fill="#fff" clip-rule="evenodd" d="M16,24c1,0,1-1.441,1-2c0-1,1-2,2-2s2.715,1.715,4,3c1,1,1,1,2,1s3,0,3,0  s2-0.076,2-2c0-0.625-0.685-1.685-3-4c-2-2-3.026-0.967,0-5c1.843-2.456,3.184-4.681,2.954-5.323C29.734,7.064,24.608,6.088,24,7  c-2,3-2.367,3.735-3,5c-1,2-1.099,3-2,3c-0.909,0-1-1.941-1-3c0-3.306,0.479-5.644-1-6c0,0-2,0-3,0c-1.61,0-3,1-3,1  s-1.241,0.968-1,1c0.298,0.04,2-0.414,2,1c0,1,0,2,0,2s0.009,4-1,4c-1,0-3-4-5-7C5.215,6.823,5,7,4,7C2.928,7,2.001,7.042,1,7.042  C0,7.042-0.128,7.679,0,8c2,5,3.437,8.14,7.237,12.096C10.722,23.725,13.05,23.918,15,24C15.5,24.021,15,24,16,24z" fill-rule="evenodd" id="VK"/></svg>